<?xml version="1.0" standalone="no"?><!DOCTYPE svg PUBLIC "-//W3C//DTD SVG 1.1//EN" "http://www.w3.org/Graphics/SVG/1.1/DTD/svg11.dtd"><svg t="1734689806656" class="icon" viewBox="0 0 1385 1024" version="1.1" xmlns="http://www.w3.org/2000/svg" p-id="36366" xmlns:xlink="http://www.w3.org/1999/xlink" width="48.69140625" height="36"><path d="M1018.372549 0h-10.776429c-11.315251 19.424513-17.689508 33.326107-51.188039 32.248464-8.497214 7.812911-64.157471 30.928351-78.12911 32.248464v10.776429c-17.53325 2.036745-30.637388 0.24247-51.188039 0-5.226568 7.376466-7.209431 5.425932-8.082321 18.810257h2.694107v2.694107c8.470273 0.436445 39.059167 4.342901 43.105716 10.77643-27.382906 1.966698-61.738162 27.743917-67.352682 51.064109 4.37523 3.626268 3.022788 1.71884 5.388215 8.082322-49.350657 8.254745-48.951929 52.265681-80.823218 56.436159-4.849393 2.386979-4.876334 0.808232-13.470537 0v8.082321a114.607323 114.607323 0 0 0 32.329288 0v2.694108h2.694107v8.082322c27.140437-1.303948 39.824294-18.540846 67.352682-21.498976v5.388214c-11.579273 6.945409-17.420098 14.548179-35.023395 16.126926v10.776429a659.51746 659.51746 0 0 1-32.329287 16.126926 45.492695 45.492695 0 0 1-2.694107 16.126927H732.797178l2.694107 16.126926a38.186276 38.186276 0 0 0-24.246965 32.248464c16.53643-1.255454 19.866347-8.120039 35.023394-10.776429v2.694107a23.034617 23.034617 0 0 0-13.470536 18.810257c16.099985-0.732797 20.044158-4.887111 37.717502-5.388215v2.694108h-2.694108a202.898607 202.898607 0 0 1-24.246965 10.776429v5.388214h8.082322c5.803107-3.77175 30.939128 1.077643 35.023394 8.082322-36.639859 3.232929-58.591445 27.980998-91.599647 37.625902-41.068971 11.999554-115.307791-13.578301-142.787685-21.498976-16.848947-4.849393-76.14086-4.633865-91.599648 0-10.081349 3.022788-18.196001 9.423987-32.329287 10.776429-7.004679-8.890554-20.135758-12.435999-26.941073-21.498976-23.411792-31.186986-37.868372-63.629426-75.435003-80.623854a109.429249 109.429249 0 0 0-59.27036-5.388215C178.387619 304.482616 160.865145 345.562363 140.093578 429.979521c11.088946 4.445277 11.455344 10.889582 10.776429 26.876414-8.437944 8.788178-10.975793 19.882512-10.776429 37.625902 13.238843-2.537849 11.665484-8.621143 21.552858-13.438207v8.082322a85.748046 85.748046 0 0 0-21.552858 37.625902h16.164644c4.272854-6.929244 12.058824-12.171977 16.164643-18.810257 13.664512-22.09168 11.315251-52.680574 37.717502-61.813597v16.126926c-5.786942 8.78279-0.75435 22.555066 0 34.937183-15.841351 11.961836-26.547733 30.949904-45.799823 40.309233-49.539245 24.085319-130.184652 38.498793-132.011257 107.49488h10.776429c7.839852-25.437761 31.855124-41.850262 56.576253-51.064109v2.694107c-34.834807 23.169323-64.453822 69.184675-78.129111 112.872318-4.800899 15.345635 0.748962 26.542345-5.388214 40.314621-5.58219 12.522211-14.914578 8.998318-16.164644 29.559745h13.470536c4.951769-6.918467 13.901594-9.725727 18.858751-16.121537 7.468065-9.628739 11.067393-28.659913 21.552858-34.937184 3.550833 9.030648 4.154313 7.78597 16.164644 8.082322 0.991431-26.844085 17.193793-38.256323 26.941073-56.436159l16.164643 2.694107c26.741709-39.899729 83.463443-71.663253 123.928935-99.434111 12.716186-8.728908 17.166852-29.252617 29.63518-37.625902 10.102902-6.783762 22.716713-6.595175 32.329287-13.438207 26.504627-18.858751 24.785787-66.948566 56.576253-80.623854v5.388214c-41.489252 42.475295-17.845767 100.479425-16.164644 158.55899-6.557457 4.876334-11.315251 15.410294-18.858751 18.815645-16.046103 7.247149-31.790466-0.398728-51.188038 5.388214a258.828274 258.828274 0 0 0-32.329287 13.438207c0 54.911294-13.874652 108.033702-26.941073 150.498221-5.506755 17.89426 0.280187 30.08779-5.388214 48.37539-7.004679 22.565843-17.549415 43.073387-18.858751 72.563085 14.796037 8.012275 23.374075 15.792857 45.799823 16.121538 0.226305 24.090707-4.078878 40.600197-5.388214 59.124878h10.776429c2.694107 5.000263 5.544473 10.29149 8.082322 16.126927 13.055644 0.576539 12.931715 3.373022 18.858751 5.388214 21.876151 7.419571 54.8628-3.071282 70.046789-5.388214v-18.815646c-18.352259-13.562136-32.555592-34.748596-48.493931-51.058721-3.987279-4.084267-15.959891-6.153341-18.858751-10.776429v-21.498976c-17.02137-26.310652-11.072781-87.709356-2.694107-115.561037 5.12958-17.059087 13.141855-61.549575 21.552858-72.563085 8.949824-11.730143 65.014197-37.636679 83.517325-43.003341h59.27036c13.890817-3.529281 27.921728-10.275325 45.799824-10.776429v5.388215c-6.848421 4.143537-12.198918 12.430611-18.858751 16.126926-19.176656 10.636336-43.03567 7.678206-45.799824 34.937183 14.672108 13.626795 28.778454 32.070653 48.493931 40.309233 12.850892 5.388215 21.191848 0.90522 35.023395 5.388215a392.80084 392.80084 0 0 1 64.658574 26.871026c20.270463 11.202098 22.8137 46.096175 45.799824 48.37539 5.178074-8.33018 22.215609-16.509489 29.63518-13.438207 7.462677 7.112443 8.416391 14.06324 8.082322 29.565133-6.649057 5.776166-5.900095 16.671136-5.388215 29.559745 13.174185 7.748253 69.836649 48.138309 83.517326 40.314621 4.148925-6.212611 3.0174-21.784551 2.694107-32.248464-21.552858-24.457106-14.111734-70.305423-43.105717-91.37873-33.363824-24.246965-137.604223-48.041321-153.564114-80.623855l8.082322-2.694107c40.799561-23.444121 88.221237 10.873417 86.211433-61.813597a29.866873 29.866873 0 0 0 8.082321-13.438207 42.529177 42.529177 0 0 1 18.858751-5.388215c10.550124 6.751433 25.028257 3.103612 37.717502 8.082322 26.973402 10.544736 83.091656 36.925434 126.623042 26.871026 23.406404-5.388215 52.739844-12.710798 75.435003-16.121538 15.668928 19.354467 37.555855 15.087001 61.964468 26.876414a976.436075 976.436075 0 0 0 94.293754 40.309233c-5.82466 23.65965-19.101221 42.728541-13.470536 72.563085h13.470536c12.123483-14.338039 37.227174-28.557537 56.576253-34.937183 23.066946 44.975427 93.609451 47.701863 121.234827 88.684624 13.766888 20.426721 12.667692 63.968883 40.411609 69.874366a20.103428 20.103428 0 0 1 10.776429-10.776429v2.694107c15.431846 15.383353 2.844977 45.374155 29.63518 56.436159 11.854072 10.814147 65.84937 16.460995 80.823218 5.388215a29.096359 29.096359 0 0 0 2.694108-16.126927c-4.342901-2.403144-43.39668-48.731012-45.799824-53.74744a18.099013 18.099013 0 0 0 2.694107-10.776429c-74.17955-22.188667-115.216192-93.814203-156.258221-150.503608-9.08453-12.549152-32.523263-14.041687-40.411609-26.871026 5.781554-6.131788 5.760001-14.100957 10.776429-21.498976 10.14062-14.96846 26.262158-27.873234 37.717501-43.003341 12.473717-16.471772 36.418942-24.009884 48.493931-40.309233 9.542528-11.854072 8.497214-34.619278 8.082322-56.436159-15.652763-7.5435-28.665301-21.105636-48.493931-26.876414-32.792674-9.547916-74.63216 15.194765-107.764291 16.126926-16.606477-26.709379-16.832782-27.12966-16.164643-72.563085-16.164644-18.724046-12.506046-48.601695-21.552858-75.251804-8.804343-25.944253-28.099539-49.948749-37.717502-72.563086-13.567524-31.89823-6.746045-66.749202-5.388215-99.439499 6.923856-4.849393 4.418336-6.514351 16.164644-8.082322 8.534932 8.939048 18.858751 0 32.329287 5.388215 20.313569 8.114651 38.444911 40.411609 59.27036 42.997952 7.12322 4.698523 26.116676 3.028177 37.717502 2.694107v-16.105373h2.694107c4.553041 3.071282 13.190349 2.86653 21.552858 2.694107 8.173921-14.602061 13.847711-16.660359 13.470537-42.997952a46.20394 46.20394 0 0 1-5.388215-16.126926c-26.046629-14.386533-36.860776-33.363824-53.882145-56.436159l-26.941073-24.187695c-4.46683-6.681386-1.163854-13.599854-5.388215-21.498976-6.207223-11.606214-21.628293-12.225859-26.941072-26.876414h16.164643a36.925434 36.925434 0 0 0 21.552859 10.776429v-13.470537c-17.08064-13.637571-17.387768-24.785787-51.188039-24.187695l5.388215-34.937183a38.207829 38.207829 0 0 0-10.776429-2.694107 90.365746 90.365746 0 0 1-13.470537 18.815645 151.710569 151.710569 0 0 0-29.63518-2.694107q1.352442-13.427431 2.694108-26.865638z m-169.728758 139.748732v5.388215c-8.621143 2.516296-9.418599 4.671582-21.552859 5.388214v-2.694107a63.090604 63.090604 0 0 1 21.552859-8.082322z m-24.246966 10.776429v5.388215h-5.388214v-5.388215h5.388214z m312.516444 96.750781v5.388214h-5.388215v-5.388214h5.388215z m8.082322 5.388214v5.388215h-2.694108a9.159965 9.159965 0 0 1 2.694108-5.43132zM754.350036 317.123367v5.388215h-5.388214v-5.388215h5.388214z m409.504305 295.619003c-3.895679 33.013591-30.578118 72.891766-64.658574 75.251804-9.628739-14.30571-30.174001-22.808312-37.717502-37.625902h10.776429c9.186906-7.866793 22.673607-5.242733 35.023395-10.776429 18.788704-8.351733 30.08779-25.022868 56.576252-26.849473z" fill="#d4237a" p-id="36367"></path></svg>