<?xml version="1.0" standalone="no"?><!DOCTYPE svg PUBLIC "-//W3C//DTD SVG 1.1//EN"
        "http://www.w3.org/Graphics/SVG/1.1/DTD/svg11.dtd">
<svg t="1734690082973" class="icon" viewBox="0 0 1024 1024" version="1.1" xmlns="http://www.w3.org/2000/svg"
     p-id="88025" xmlns:xlink="http://www.w3.org/1999/xlink" width="36" height="36">
    <path d="M27.144 999.619c45.999-178.794 287.777-892.912 974.02-989.054a8.858 8.858 0 0 1 9.345 9.915c-5.201 72.086-43.398 185.133-245.679 275.586a8.615 8.615 0 0 0-2.194 13.572c19.18 17.96 79.32 9.021 111.909 3.088a5.77 5.77 0 0 1 5.282 8.777c-28.688 48.762-105 165.06-367.34 221.623-4.794 0.976-4.307 8.777 0.57 9.59l59.977 10.321a10.728 10.728 0 0 1 6.745 15.767c-27.144 45.917-152.218 167.09-362.789 185.133a44.617 44.617 0 0 0-33.889 20.398C146.286 840.9 73.143 937.773 35.759 1004.414c-3.251 5.12-10.159 1.219-8.615-4.795z m840.655 11.46s-757.11-9.997-757.11-22.35L867.8 966.46a22.35 22.35 0 0 1 22.35 22.268 22.35 22.35 0 0 1-22.35 22.35z"
          fill="#16a085" p-id="88026"></path>
</svg>